<mxfile host="app.diagrams.net" modified="2024-04-10T03:02:37.808Z" agent="Mozilla/5.0 (Windows NT 10.0; Win64; x64) AppleWebKit/537.36 (KHTML, like Gecko) Chrome/123.0.0.0 Safari/537.36 Edg/123.0.0.0" version="24.2.3" etag="ikrIYBv4yq3q2C4H68EN" type="github">
  <diagram name="第 1 页" id="QMbdA5SYGmwlTq5hs8-E">
    <mxGraphModel>
      <root>
        <mxCell id="0" />
        <mxCell id="1" parent="0" />
      </root>
    </mxGraphModel>
  </diagram>
</mxfile>
